Coordinates
version=1
nRows=10
nColumns=38
inDegrees=no

Units are S.I. units (second, meters, Newtons, ...)
If the header above contains a line with 'inDegrees', this indicates whether rotational values are in degrees (yes) or radians (no).

endheader
time	pelvis_tilt	pelvis_list	pelvis_rotation	pelvis_tx	pelvis_ty	pelvis_tz	hip_flexion_r	hip_adduction_r	hip_rotation_r	knee_angle_r	ankle_angle_r	subtalar_angle_r	mtp_angle_r	hip_flexion_l	hip_adduction_l	hip_rotation_l	knee_angle_l	ankle_angle_l	subtalar_angle_l	mtp_angle_l	lumbar_extension	lumbar_bending	lumbar_rotation	arm_flex_r	arm_add_r	arm_rot_r	elbow_flex_r	pro_sup_r	wrist_flex_r	wrist_dev_r	arm_flex_l	arm_add_l	arm_rot_l	elbow_flex_l	pro_sup_l	wrist_flex_l	wrist_dev_l
1.34	-0.128873	0.0591138	0.0121623	0.782365	0.970698	-0.486128	0.545493	-0.137542	0.000884341	-1.34195	0.170622	-0.00851793	0.00027473	0.308851	0.0626933	-0.0772528	-0.722206	0.441584	0.0162463	-4.19321e-05	-0.084475	-0.0488932	-0.160598	-0.441027	-0.269273	0.131508	1.84662	1.37658	0.00438679	0.00160641	-0.267696	-0.59522	0.322824	2.14243	1.38752	0.00333543	-0.0204063
1.35	-0.121407	0.0561452	0.00700387	0.781943	0.975876	-0.485331	0.553011	-0.129047	0.00664484	-1.29784	0.186644	-0.00851793	0.00027473	0.263147	0.0589111	-0.0830686	-0.688877	0.415033	0.0162463	-4.19321e-05	-0.0959568	-0.0433873	-0.167764	-0.4593	-0.279764	0.130693	1.85993	1.37344	0.00438679	0.00160641	-0.241979	-0.595914	0.32554	2.15897	1.39085	0.00333543	-0.0204063
1.36	-0.113898	0.0522648	0.00157985	0.781937	0.981813	-0.484465	0.555326	-0.119721	0.0110981	-1.24285	0.200176	-0.00851793	0.00027473	0.216357	0.054331	-0.0897599	-0.652846	0.380791	0.0162463	-4.19321e-05	-0.106534	-0.0365739	-0.174218	-0.477494	-0.2907	0.128401	1.87422	1.37493	0.00438679	0.00160641	-0.220412	-0.596013	0.326953	2.17713	1.39348	0.00333543	-0.0204063
1.37	-0.107107	0.0476629	-0.00393049	0.782319	0.988256	-0.483538	0.553208	-0.110054	0.0139629	-1.17752	0.210791	-0.00851793	0.00027473	0.170342	0.0491267	-0.0972402	-0.615895	0.339299	0.0162463	-4.19321e-05	-0.115385	-0.0287698	-0.180054	-0.49546	-0.301549	0.124443	1.88849	1.38058	0.00438679	0.00160641	-0.202933	-0.595507	0.327375	2.19616	1.39526	0.00333543	-0.0204063
1.38	-0.101635	0.0425861	-0.0093789	0.783049	0.994947	-0.482555	0.54743	-0.100505	0.0150256	-1.10259	0.218137	-0.00851793	0.00027473	0.12682	0.043484	-0.105423	-0.579854	0.291259	0.0162463	-4.19321e-05	-0.121903	-0.0203506	-0.185339	-0.513085	-0.311788	0.118684	1.90202	1.38931	0.00438679	0.00160641	-0.189324	-0.594407	0.327145	2.21538	1.3961	0.00333543	-0.0204063
1.39	-0.0978992	0.0373083	-0.0146561	0.784067	1.00163	-0.481517	0.53874	-0.0914552	0.0141353	-1.01912	0.221909	-0.00851793	0.00027473	0.087263	0.037577	-0.114217	-0.546519	0.237678	0.0162463	-4.19321e-05	-0.125741	-0.0117122	-0.190104	-0.530282	-0.320936	0.11105	1.91436	1.3997	0.00438679	0.00160641	-0.179237	-0.59274	0.326607	2.23413	1.39606	0.00333543	-0.0204063
1.4	-0.096114	0.0321158	-0.0196927	0.785306	1.00809	-0.480419	0.527862	-0.0832139	0.0111892	-0.928598	0.221828	-0.00851793	0.00027473	0.0528204	0.0315652	-0.123525	-0.517559	0.179895	0.0162463	-4.19321e-05	-0.126807	-0.0032455	-0.194341	-0.546964	-0.32859	0.101533	1.92528	1.41025	0.00438679	0.00160641	-0.172222	-0.590554	0.326107	2.25184	1.39543	0.00333543	-0.0204063
1.41	-0.0963	0.0272914	-0.0244491	0.786694	1.01411	-0.479265	0.515536	-0.0760203	0.00611876	-0.833026	0.21766	-0.00851793	0.00027473	0.0242997	0.0255942	-0.133216	-0.494454	0.11955	0.0162463	-4.19321e-05	-0.125231	0.004691	-0.198005	-0.563024	-0.334447	0.0901997	1.93474	1.41964	0.00438679	0.00160641	-0.167756	-0.587915	0.325996	2.26798	1.39476	0.00333543	-0.0204063
1.42	-0.0983128	0.0230985	-0.0289025	0.788159	1.01951	-0.478061	0.50254	-0.0700472	-0.00110942	-0.735004	0.209245	-0.00851793	0.00027473	0.00216586	0.0197914	-0.143078	-0.478447	0.0585222	0.0162463	-4.19321e-05	-0.121325	0.0118084	-0.201041	-0.578322	-0.338323	0.0771917	1.94279	1.42688	0.00438679	0.00160641	-0.165289	-0.584901	0.326601	2.28211	1.39478	0.00333543	-0.0204063
1.43	-0.101901	0.0198171	-0.0330288	0.789635	1.02416	-0.476818	0.489681	-0.0653625	-0.0104615	-0.63767	0.19657	-0.00851793	0.00027473	-0.0134423	0.0142317	-0.152779	-0.470532	-0.0011896	0.0162463	-4.19321e-05	-0.115557	0.0179553	-0.20339	-0.592666	-0.340166	0.0627364	1.94952	1.43144	0.00438679	0.00160641	-0.164289	-0.581606	0.328185	2.29383	1.39636	0.00333543	-0.0204063
